# xmcd
#
# Track frame offsets:
#	150
#	12602
#	38150
#	49625
#	66347
#	76280
#	96042
#	107845
#	130985
#	153390
#	171692
#	184657
#	204867
#	219605
#	230450
#	249145
#	259192
#
# Disc length: 3664 seconds
#
# Revision: 0
# Processed by: cddbd v1.5.2PL0 Copyright (c) Steve Scherf et al.
# Submitted via: EZCDAudioConverter 2.1.3.1
#
DISCID=ea0e4e11
DTITLE=Pure Prairie  League - Greatest Hits
DYEAR=1900
DGENRE=
TTITLE0=Tears
TTITLE1=Your're Bteween Us
TTITLE2=It's All on Me
TTITLE3=Woman
TTITLE4=Falling in and Out of Love
TTITLE5=Amie
TTITLE6=Jazzman
TTITLE7=Earlig Morning Riser
TTITLE8=Angel #9
TTITLE9=Boulder Skies
TTITLE10=Call Me, Tell Me
TTITLE11=Angel
TTITLE12=She Darked the Sun
TTITLE13=Just Can't Believe It
TTITLE14=Two Lane Highway
TTITLE15=Thall'll Be the Day
TTITLE16=Goin' Home
EXTD=
EXTT0=
EXTT1=
EXTT2=
EXTT3=
EXTT4=
EXTT5=
EXTT6=
EXTT7=
EXTT8=
EXTT9=
EXTT10=
EXTT11=
EXTT12=
EXTT13=
EXTT14=
EXTT15=
EXTT16=
PLAYORDER=
